{
  "accessors": [
    {
      "bufferView": 1,
      "componentType": 5126,
      "count": 24587,
      "max": [
        1104.619140625,
        363.9042663574219,
        3725.8349609375
      ],
      "min": [
        -1703.676513671875,
        -2701.76708984375,
        360.1077880859375
      ],
      "type": "VEC3"
    },
    {
      "bufferView": 1,
      "byteOffset": 295044,
      "componentType": 5126,
      "count": 24587,
      "max": [
        0.9999426603317261,
        0.9999530911445618,
        0.9998303055763245
      ],
      "min": [
        -0.9999691247940063,
        -0.9998027086257935,
        -0.9998467564582825
      ],
      "type": "VEC3"
    },
    {
      "bufferView": 2,
      "componentType": 5126,
      "count": 24587,
      "max": [
        0.7215686440467834,
        1.0,
        0.7215686440467834,
        1.0
      ],
      "min": [
        0.0,
        0.7215686440467834,
        0.0,
        1.0
      ],
      "type": "VEC4"
    },
    {
      "bufferView": 0,
      "componentType": 5125,
      "count": 125415,
      "type": "SCALAR"
    }
  ],
  "asset": {
    "extras": {
      "author": "Binkley-Spacetrucker (https://sketchfab.com/Binkley-Piratepants)",
      "license": "CC-BY-4.0 (http://creativecommons.org/licenses/by/4.0/)",
      "source": "https://sketchfab.com/3d-models/ass-teroids-with-gas-plume-flesh-gordon-1974-6042a0ffebc04b7e9dcebbbd087790e4",
      "title": "ASS-teroids With Gas Plume (FLESH GORDON 1974)"
    },
    "generator": "Sketchfab-16.59.0",
    "version": "2.0"
  },
  "bufferViews": [
    {
      "buffer": 0,
      "byteLength": 501660,
      "name": "floatBufferViews",
      "target": 34963
    },
    {
      "buffer": 0,
      "byteLength": 590088,
      "byteOffset": 501660,
      "byteStride": 12,
      "name": "floatBufferViews",
      "target": 34962
    },
    {
      "buffer": 0,
      "byteLength": 393392,
      "byteOffset": 1091748,
      "byteStride": 16,
      "name": "floatBufferViews",
      "target": 34962
    }
  ],
  "buffers": [
    {
      "byteLength": 1485140,
      "uri": "scene.bin"
    }
  ],
  "materials": [
    {
      "doubleSided": true,
      "name": "Scene_-_Root",
      "pbrMetallicRoughness": {
        "metallicFactor": 0.0,
        "roughnessFactor": 0.6
      }
    }
  ],
  "meshes": [
    {
      "name": "Object_0",
      "primitives": [
        {
          "attributes": {
            "COLOR_0": 2,
            "NORMAL": 1,
            "POSITION": 0
          },
          "indices": 3,
          "material": 0,
          "mode": 4
        }
      ]
    }
  ],
  "nodes": [
    {
      "children": [
        1
      ],
      "matrix": [
        1.0,
        0.0,
        0.0,
        0.0,
        0.0,
        2.220446049250313e-16,
        -1.0,
        0.0,
        0.0,
        1.0,
        2.220446049250313e-16,
        0.0,
        0.0,
        0.0,
        0.0,
        1.0
      ],
      "name": "Sketchfab_model"
    },
    {
      "children": [
        2
      ],
      "name": "Geode"
    },
    {
      "mesh": 0,
      "name": "Object_2"
    }
  ],
  "scene": 0,
  "scenes": [
    {
      "name": "Sketchfab_Scene",
      "nodes": [
        0
      ]
    }
  ]
}
